<?xml version="1.0" encoding="UTF-8"?>
<svg width="155px" height="155px" viewBox="0 0 155 155" version="1.1" xmlns="http://www.w3.org/2000/svg" xmlns:xlink="http://www.w3.org/1999/xlink">
    <!-- Generator: Sketch 61 (89581) - https://sketch.com -->
    <title>Elvia_charge_rgb</title>
    <desc>Created with Sketch.</desc>
    <g id="Page-1" stroke="none" stroke-width="1" fill="none" fill-rule="evenodd">
        <g id="Desktop-Copy-4" transform="translate(-254.000000, -140.000000)">
            <g id="Elvia_charge_rgb" transform="translate(254.000000, 140.000000)">
                <!-- <polyline id="Fill-1" fill="#29F42E" points="491.470956 152.946173 516 153 466.386524 43.0285747 448.943133 43 399 152.742163 423.515143 152.796654 457.610879 75.9885037 491.470956 152.946173"></polyline> -->
                <!-- <polygon id="Fill-2" fill="#29F42E" points="181 153 203 153 203 3 181 3"></polygon> -->
                <!-- <polyline id="Fill-3" fill="#29F42E" points="280.55759 119.157992 246.890997 43 222 43 271.854148 153 289.29744 152.989354 339 43 314.122904 43 280.55759 119.157992"></polyline> -->
                <!-- <path d="M367.999333,26 C375.168667,26 381,20.1688162 381,13.0003333 C381,5.83185047 375.168667,0 367.999333,0 C360.831333,0 355,5.83185047 355,13.0003333 C355,20.1688162 360.831333,26 367.999333,26" id="Fill-4" fill="#28F400"></path> -->
                <!-- <polyline id="Fill-5" fill="#29F42E" points="357 152.98869 378.953818 153 379 43.0099792 357.046182 43 357 152.98869"></polyline> -->
                <polygon id="Fill-6" fill="#262626" points="61 89 154 89 154 67 61 67"></polygon>
                <path d="M77.1936195,132.690388 C46.912964,132.690388 22.365144,108.204905 22.365144,77.9996697 C22.365144,47.7950947 46.912964,23.3089514 77.1936195,23.3089514 C94.6212539,23.3089514 110.138385,31.429164 120.180945,44.0722022 L137,29.3167065 C122.843731,12.0352454 101.312321,1 77.1936195,1 C34.560581,1 0,35.4737472 0,77.9996697 C0,120.525592 34.560581,155 77.1936195,155 C101.312321,155 122.844393,143.964094 137,126.681312 L120.180283,111.927137 C110.137722,124.570175 94.6212539,132.690388 77.1936195,132.690388" id="Fill-7" fill="#262626"></path>
                <!-- <path d="M458.499324,144 C465.392568,144 471,138.392719 471,131.500338 C471,124.607281 465.392568,119 458.499324,119 C451.607432,119 446,124.607281 446,131.500338 C446,138.392719 451.607432,144 458.499324,144" id="Fill-8" fill="#28F400"></path> -->
            </g>
        </g>
    </g>
</svg>