<svg width="45px" height="45px" viewBox="0 0 45 45" version="1.1" xmlns="http://www.w3.org/2000/svg" xmlns:xlink="http://www.w3.org/1999/xlink">
    <defs>
        <polygon id="path-1" points="0.432851852 0.448408889 25.8086668 0.448408889 25.8086668 44 0.432851852 44"></polygon>
    </defs>
    <g id="Symbols" stroke="none" stroke-width="1" fill="none" fill-rule="evenodd">
        <g id="Components/Menu/Closed" transform="translate(-10.000000, -10.000000)">
            <g id="Logo" transform="translate(10.000000, 10.000000)">
                <g id="Group-3" transform="translate(2.000000, 1.000000)">
                    <mask id="mask-2" fill="white">
                        <use xlink:href="#path-1"></use>
                    </mask>
                    <g id="Clip-2"></g>
                    <path d="M24.3148148,31.3026756 C23.2314815,26.9637867 18.1759259,21.3112533 18.1759259,21.3112533 C18.1759259,21.3112533 15.5277778,18.0415644 12.9398148,11.5637867 C11.6412593,8.31267556 11.2218889,3.96938667 11.1255926,0.448408889 C6.58811111,2.43036444 2.8287037,5.89414222 0.432851852,10.2393867 C2.10744444,18.4488089 7.10185185,24.2137867 7.10185185,24.2137867 C7.82407407,23.2360089 8.5462963,17.9804533 8.5462963,17.9804533 C8.5462963,17.9804533 11.375,23.9693422 15.3472222,27.5748978 C19.3194444,31.1804533 19.9814815,37.04712 20.3425926,39.4304533 C20.5135185,40.5597867 20.5226667,42.3877422 20.4846296,44.0000978 C22.3031852,43.9565867 24.0678148,43.6960089 25.753963,43.2369422 C26.012037,39.5160089 25.3278519,35.3589867 24.3148148,31.3026756" id="Fill-1" fill="#1164A4" mask="url(#mask-2)"></path>
                </g>
                <path d="M20.009093,38.7585527 C18.469932,33.2672633 12.3724865,29.6859876 12.3724865,29.6859876 C11.602906,32.9688236 10.0045465,34.8788374 10.0045465,34.8788374 C10.0045465,33.5657029 7.99179748,30.6409944 7.99179748,30.6409944 C3.70582609,23.4254402 2.29311309,17.2140756 1.8271025,14 C0.654498614,16.7122195 0,19.7042559 0,22.851481 C0,34.7594615 9.30979288,44.4718812 20.9908409,45 C21.040094,43.9385099 20.9150668,41.9902959 20.009093,38.7585527" id="Fill-4" fill="#1164A4"></path>
                <path d="M45,22.2481926 C45,13.2409129 39.6649326,5.49091917 32,2 C33.0487251,13.4759062 40.3564625,20.7224111 40.3564625,20.7224111 C38.8086166,20.9018867 35.1175996,20.1246379 35.1175996,20.1246379 C35.1175996,20.1246379 36.2487178,21.2010126 36.9631081,27.2438349 C37.6774985,33.2856999 36.1891852,39.0892214 36.1891852,39.0892214 L36.1891852,40 C41.5399692,35.9438525 45,29.5028338 45,22.2481926" id="Fill-6" fill="#1164A4"></path>
                <path d="M34.9715471,34.0499023 C34.9715471,34.0499023 34.9715471,25.8560756 30.8394694,20.1507443 C26.7073916,14.4454131 26.4035624,12.6852577 26.4035624,12.6852577 C28.4088354,13.959853 31.386362,14.020548 31.386362,14.020548 L30.5356401,10.1360672 C30.0626388,7.97581028 30.1161127,4.27827008 30.2561172,1.41977775 C27.7987463,0.503525828 25.1396327,0 22.3628764,0 C19.7834877,0 17.30813,0.437489654 15,1.23332267 C15.7491214,7.54220511 17.0825672,9.2669146 17.8355776,11.7748325 C18.7470653,14.8095832 24.6413527,20.8790845 28.1050061,27.4341459 C31.5686596,33.9892073 29.3203231,43.6397144 29.3203231,43.6397144 L29.3203231,44 C31.1175339,43.4187846 32.8146025,42.6180959 34.3833337,41.6304667 C35.1961377,37.8620347 34.9715471,34.0499023 34.9715471,34.0499023" id="Fill-8" fill="#1164A4"></path>
            </g>
        </g>
    </g>
</svg>
