<svg width="24" height="24" viewBox="0 0 24 24" fill="none" xmlns="http://www.w3.org/2000/svg">
<g clip-path="url(#statistics)">
<path fill-rule="evenodd" clip-rule="evenodd" d="M0.00402832 23.5C0.00402832 23.2239 0.227886 23 0.504028 23H23.504C23.7802 23 24.004 23.2239 24.004 23.5C24.004 23.7761 23.7802 24 23.504 24H0.504028C0.227886 24 0.00402832 23.7761 0.00402832 23.5Z" fill="#444444"/>
<path fill-rule="evenodd" clip-rule="evenodd" d="M1.72245 15.9693C1.87335 15.7279 2.13902 15.5 2.5 15.5H4.5C4.86098 15.5 5.12665 15.7279 5.27755 15.9693C5.4301 16.2134 5.5 16.5129 5.5 16.8V24C5.5 24.2761 5.27614 24.5 5 24.5H2C1.72386 24.5 1.5 24.2761 1.5 24V16.8C1.5 16.5129 1.5699 16.2134 1.72245 15.9693ZM2.57002 16.5C2.53517 16.5562 2.5 16.6633 2.5 16.8V23.5H4.5V16.8C4.5 16.6633 4.46483 16.5562 4.42998 16.5H2.57002Z" fill="#444444"/>
<path fill-rule="evenodd" clip-rule="evenodd" d="M7.73042 8.94232C7.88823 8.7056 8.15438 8.5 8.5 8.5H10.5C10.8456 8.5 11.1118 8.7056 11.2696 8.94232C11.4272 9.17877 11.5 9.47019 11.5 9.75V24C11.5 24.2761 11.2761 24.5 11 24.5H8C7.72386 24.5 7.5 24.2761 7.5 24V9.75C7.5 9.47018 7.57279 9.17877 7.73042 8.94232ZM8.56052 9.5C8.53117 9.5458 8.5 9.63455 8.5 9.75V23.5H10.5V9.75C10.5 9.63455 10.4688 9.54579 10.4395 9.5H8.56052Z" fill="#444444"/>
<path fill-rule="evenodd" clip-rule="evenodd" d="M13.7304 11.9423C13.8882 11.7056 14.1544 11.5 14.5 11.5H16.5C16.8456 11.5 17.1118 11.7056 17.2696 11.9423C17.4272 12.1788 17.5 12.4702 17.5 12.75V24C17.5 24.2761 17.2761 24.5 17 24.5H14C13.7239 24.5 13.5 24.2761 13.5 24V12.75C13.5 12.4702 13.5728 12.1788 13.7304 11.9423ZM14.5605 12.5C14.5312 12.5458 14.5 12.6345 14.5 12.75V23.5H16.5V12.75C16.5 12.6345 16.4688 12.5458 16.4395 12.5H14.5605Z" fill="#444444"/>
<path fill-rule="evenodd" clip-rule="evenodd" d="M19.7464 3.89526C19.9156 3.66974 20.1808 3.5 20.5 3.5H22.5C22.8192 3.5 23.0844 3.66974 23.2536 3.89526C23.4206 4.11803 23.5 4.39655 23.5 4.66667V24C23.5 24.2761 23.2761 24.5 23 24.5H20C19.7239 24.5 19.5 24.2761 19.5 24V4.66667C19.5 4.39655 19.5794 4.11803 19.7464 3.89526ZM20.5431 4.5C20.5232 4.5292 20.5 4.5877 20.5 4.66667V23.5H22.5V4.66667C22.5 4.5877 22.4768 4.5292 22.4569 4.5H20.5431Z" fill="#444444"/>
</g>
<defs>
<clipPath id="statistics">
<rect width="24" height="24" fill="white"/>
</clipPath>
</defs>
</svg>
