<svg width="36" height="36" viewBox="0 0 36 36" fill="none" xmlns="http://www.w3.org/2000/svg">
<mask id="mask0" mask-type="alpha" maskUnits="userSpaceOnUse" x="1" y="1" width="22" height="35">
<path fill-rule="evenodd" clip-rule="evenodd" d="M1.94629 1.15869H22.2469V36H1.94629V1.15869Z" fill="white"/>
</mask>
<g mask="url(#mask0)">
<path fill-rule="evenodd" clip-rule="evenodd" d="M21.0519 25.8421C20.1852 22.371 16.1407 17.849 16.1407 17.849C16.1407 17.849 14.0222 15.2332 11.9519 10.051C10.913 7.4501 10.5775 3.97547 10.5005 1.15869C6.8705 2.74426 3.86297 5.51528 1.94629 8.99147C3.28596 15.559 7.28149 20.171 7.28149 20.171C7.85927 19.3888 8.43704 15.1843 8.43704 15.1843C8.43704 15.1843 10.7 19.9754 13.8778 22.8599C17.0556 25.7443 17.5852 30.4377 17.8741 32.3443C18.0108 33.2478 18.0181 34.7102 17.9877 36C19.4426 35.9652 20.8543 35.7568 22.2032 35.3895C22.4096 32.4128 21.8623 29.0872 21.0519 25.8421Z" fill="#0063A2"/>
</g>
<path fill-rule="evenodd" clip-rule="evenodd" d="M16.0073 31.0068C14.7759 26.6138 9.89799 23.7487 9.89799 23.7487C9.28232 26.375 8.00364 27.903 8.00364 27.903C8.00364 26.8525 6.39344 24.5127 6.39344 24.5127C2.96466 18.7403 1.83449 13.7712 1.46168 11.2C0.523599 13.3697 0 15.7634 0 18.2811C0 27.8075 7.44783 35.5775 16.7927 36C16.8321 35.1508 16.7321 33.5922 16.0073 31.0068Z" fill="#0063A2"/>
<path fill-rule="evenodd" clip-rule="evenodd" d="M36 17.7987C36 10.5928 31.7319 4.39283 25.6 1.6001C26.439 10.7808 32.2851 16.578 32.2851 16.578C31.0469 16.7216 28.0941 16.0998 28.0941 16.0998C28.0941 16.0998 28.999 16.9609 29.5705 21.7952C30.142 26.6287 28.9513 31.2715 28.9513 31.2715V32.0001C33.232 28.7552 36 23.6024 36 17.7987Z" fill="#0063A2"/>
<path fill-rule="evenodd" clip-rule="evenodd" d="M27.9772 27.2399C27.9772 27.2399 27.9772 20.6849 24.6716 16.1206C21.3659 11.5563 21.1229 10.1482 21.1229 10.1482C22.7271 11.1679 25.1091 11.2164 25.1091 11.2164L24.4285 8.10885C24.0501 6.38065 24.0929 3.42262 24.2049 1.13582C22.239 0.402821 20.1117 0 17.8903 0C15.8268 0 13.8465 0.349992 12 0.986658C12.5993 6.03376 13.6661 7.41353 14.2685 9.41987C14.9977 11.8477 19.7131 16.7033 22.484 21.9473C25.2549 27.1914 23.4563 34.9118 23.4563 34.9118V35.2C24.894 34.735 26.2517 34.0945 27.5067 33.3044C28.1569 30.2896 27.9772 27.2399 27.9772 27.2399Z" fill="#0063A2"/>
</svg>